<svg id="Layer_1" data-name="Layer 1" xmlns="http://www.w3.org/2000/svg" viewBox="0 0 512 512"><defs><style>.cls-1{fill:#c0ccdd;}.cls-2{fill:#50b9ff;}.cls-3{opacity:0.06;}</style></defs><title>signal-flat</title><path class="cls-1" d="M79.62,438.94A6.55,6.55,0,0,1,75,437,256,256,0,0,1,75,75a6.57,6.57,0,1,1,9.28,9.29,242.87,242.87,0,0,0,0,343.47,6.56,6.56,0,0,1-4.64,11.21Z"/><path class="cls-1" d="M432.38,438.94a6.56,6.56,0,0,1-4.64-11.21,242.87,242.87,0,0,0,0-343.47A6.57,6.57,0,1,1,437,75a256,256,0,0,1,0,362A6.55,6.55,0,0,1,432.38,438.94Z"/><path class="cls-1" d="M116.78,401.79a6.54,6.54,0,0,1-4.64-1.92,203.38,203.38,0,0,1,0-287.73,6.56,6.56,0,1,1,9.28,9.28,190.26,190.26,0,0,0,0,269.17,6.56,6.56,0,0,1-4.64,11.2Z"/><path class="cls-1" d="M395.22,401.79a6.56,6.56,0,0,1-4.64-11.2,190.26,190.26,0,0,0,0-269.17,6.56,6.56,0,1,1,9.28-9.28,203.38,203.38,0,0,1,0,287.73A6.54,6.54,0,0,1,395.22,401.79Z"/><path class="cls-1" d="M153.87,364.7a6.54,6.54,0,0,1-4.64-1.92,151.08,151.08,0,0,1,0-213.56,6.56,6.56,0,0,1,9.28,9.28,138,138,0,0,0,0,195,6.56,6.56,0,0,1-4.64,11.2Z"/><path class="cls-1" d="M358.13,364.7a6.56,6.56,0,0,1-4.64-11.2,138,138,0,0,0,0-195,6.56,6.56,0,0,1,9.28-9.28,151.08,151.08,0,0,1,0,213.56A6.54,6.54,0,0,1,358.13,364.7Z"/><path class="cls-2" d="M301.95,256A45.95,45.95,0,1,1,256,210.05,46,46,0,0,1,301.95,256Z"/><path class="cls-1" d="M191,327.55a6.56,6.56,0,0,1-4.65-1.93,98.49,98.49,0,0,1,0-139.23,6.57,6.57,0,0,1,9.31,9.26,85.35,85.35,0,0,0,0,120.71,6.56,6.56,0,0,1-4.65,11.2Z"/><path class="cls-1" d="M321,327.55a6.56,6.56,0,0,1-4.65-11.2,85.35,85.35,0,0,0,0-120.71,6.57,6.57,0,0,1,9.31-9.26,98.49,98.49,0,0,1,0,139.23A6.56,6.56,0,0,1,321,327.55Z"/><g class="cls-3"><path d="M301.95,256A46,46,0,0,1,256,301.95v-91.9A46,46,0,0,1,301.95,256Z"/></g></svg>